<svg width="30" height="30" viewBox="0 0 30 30" fill="none" xmlns="http://www.w3.org/2000/svg">
<path d="M30 15C30 23.2843 23.2843 30 15 30C6.71573 30 0 23.2843 0 15C0 6.71573 6.71573 0 15 0C23.2843 0 30 6.71573 30 15Z" fill="black"/>
<path d="M23.8876 15.9858C23.8876 20.1959 19.9242 23.6088 15.0351 23.6088C10.1461 23.6088 6.18267 20.1959 6.18267 15.9858C6.18267 11.7758 10.1461 8.36287 15.0351 8.36287C19.9242 8.36287 23.8876 11.7758 23.8876 15.9858Z" fill="white"/>
<path d="M21.9204 6.50227L22.26 11.8233L17.5831 9.34399L21.9204 6.50227Z" fill="white"/>
<path d="M8.28257 6.39344L12.7283 9.33696L7.92732 11.5665L8.28257 6.39344Z" fill="white"/>
</svg>
